<?xml version="1.0" standalone="no"?>
<!DOCTYPE svg PUBLIC "-//W3C//DTD SVG 20010904//EN"
 "http://www.w3.org/TR/2001/REC-SVG-20010904/DTD/svg10.dtd">
<svg version="1.0" xmlns="http://www.w3.org/2000/svg"
 width="560.000000pt" height="560.000000pt" viewBox="0 0 560.000000 560.000000"
 preserveAspectRatio="xMidYMid meet">
<metadata>
Created by potrace 1.11, written by Peter Selinger 2001-2013
</metadata>
<g transform="translate(0.000000,560.000000) scale(0.100000,-0.100000)"
fill="#000000" stroke="none">
<path d="M2669 4876 c-2 -2 -23 -6 -46 -10 -218 -29 -459 -153 -620 -319 -206
-210 -320 -487 -323 -778 l0 -65 -75 -34 c-42 -19 -82 -41 -89 -49 -20 -23
-30 -141 -30 -371 -1 -172 2 -210 15 -235 27 -48 75 -93 124 -115 41 -19 45
-24 46 -58 1 -75 36 -213 83 -327 92 -228 295 -441 503 -532 35 -15 63 -31 63
-35 0 -4 -17 -10 -37 -13 -384 -56 -570 -173 -599 -377 -6 -48 -6 -48 -80 -83
-177 -85 -388 -260 -514 -425 -196 -259 -290 -548 -290 -897 l0 -153 2000 0
2001 0 -2 158 c-2 292 -61 521 -190 745 -134 230 -378 458 -611 570 -75 36
-76 37 -83 83 -16 107 -78 194 -185 258 -92 56 -199 87 -415 122 l-40 6 77 38
c108 54 183 107 260 186 94 96 109 115 164 207 81 137 137 302 151 445 l6 62
50 26 c53 26 86 58 115 109 15 26 17 60 16 235 0 230 -10 348 -30 370 -7 9
-47 31 -89 50 l-75 35 0 75 c-1 99 -8 147 -35 257 -90 356 -355 648 -709 780
-95 36 -249 61 -377 61 -70 1 -128 0 -130 -2z"/>
</g>
</svg>
